<?xml version="1.0" standalone="no"?>
<!DOCTYPE svg PUBLIC "-//W3C//DTD SVG 20010904//EN"
 "http://www.w3.org/TR/2001/REC-SVG-20010904/DTD/svg10.dtd">
<svg version="1.0" xmlns="http://www.w3.org/2000/svg"
 width="542.000000pt" height="777.000000pt" viewBox="0 0 542.000000 777.000000"
 preserveAspectRatio="xMidYMid meet">

<g transform="translate(0.000000,777.000000) scale(0.100000,-0.100000)"
fill="#000000" stroke="none">
<path d="M3164 7298 l-350 -453 -244 -2 c-344 -2 -590 -33 -885 -108 -100 -25
-1522 -495 -1645 -543 -31 -12 -103 7 710 -187 360 -86 656 -158 657 -159 1
-1 -588 -1315 -1144 -2549 l-116 -258 134 -137 c74 -75 246 -251 383 -390
l249 -254 36 20 c146 82 1714 1001 1780 1043 46 30 124 92 172 138 202 189
330 419 389 699 28 127 34 395 23 999 l-8 452 -755 -625 c-415 -344 -762 -632
-770 -640 -16 -17 -8 -12 714 410 269 157 493 286 498 286 12 0 10 -494 -3
-607 -44 -400 -271 -758 -614 -971 -103 -63 -1407 -843 -1415 -845 -8 -3 -460
475 -460 485 0 10 -5 0 683 1468 660 1411 689 1472 684 1477 -3 2 -177 40
-388 84 -211 44 -391 82 -399 85 -19 7 335 130 529 184 328 91 580 124 946
124 143 0 286 -4 317 -8 l57 -7 44 68 c145 225 338 515 342 511 2 -2 20 -64
39 -138 114 -448 312 -865 579 -1222 46 -62 204 -259 351 -437 148 -179 272
-334 277 -345 6 -15 451 -2017 492 -2212 1 -6 -155 -116 -348 -245 -793 -532
-1376 -966 -1855 -1385 -175 -153 -438 -417 -519 -521 -75 -96 -67 -99 -131
50 -47 111 -84 247 -101 374 -21 161 -8 295 91 916 50 318 90 583 88 589 -7
21 -395 -1064 -420 -1172 -19 -89 -23 -132 -23 -285 1 -331 50 -486 276 -861
l112 -187 75 84 c116 129 541 551 692 685 607 541 1313 1076 2163 1639 201
133 266 181 263 194 -3 9 -109 468 -236 1021 -127 553 -253 1101 -280 1218
l-50 214 -301 376 c-393 493 -493 641 -644 956 -151 313 -222 545 -315 1021
-35 176 -66 323 -70 328 -3 4 -164 -196 -356 -445z"/>
</g>
</svg>
